<?xml version="1.0" encoding="UTF-8"?>
<svg xmlns="http://www.w3.org/2000/svg" width="512" height="512" viewBox="0 0 50.32 44" fill="none">
  <path d="M33.437 1.03849C33.3432 1.24604 32.3185 3.62973 31.1495 6.32826L29.0352 11.2387L23.2118 11.2745C20.0006 11.296 17.3379 11.3389 17.2946 11.3676C17.2369 11.4033 18.7162 12.9209 21.5521 15.734L25.8962 20.0503L25.6003 21.6107C25.0158 24.6171 24.3591 28.1245 24.2581 28.7616C24.2004 29.1124 24.0705 29.821 23.9695 30.3293C23.8684 30.8375 23.8035 31.267 23.8107 31.2813C23.8252 31.2884 24.323 31.0308 24.9148 30.7014C27.3105 29.3772 32.2319 26.6142 32.7731 26.2921C33.6174 25.7839 33.6318 25.7839 34.3751 26.2062C34.7215 26.3995 36.6987 27.4661 38.7625 28.5684C40.8263 29.6707 42.8107 30.7372 43.1643 30.9305C43.5251 31.1309 43.8354 31.267 43.8643 31.2455C43.9292 31.181 43.4602 28.9764 42.4933 24.7531C41.7139 21.3745 41.5407 20.537 41.5407 20.1791C41.5407 19.9787 41.9665 19.5349 45.8848 15.6624L50.2361 11.3676L44.3045 11.296C41.0428 11.2531 38.3656 11.2101 38.3512 11.1886C38.3079 11.1314 37.2471 8.72621 35.4215 4.50295C34.5195 2.41999 33.7401 0.702053 33.6896 0.680592C33.6463 0.666262 33.5308 0.823753 33.437 1.03849ZM34.606 11.1957C35.075 12.3554 35.5802 13.5364 35.7173 13.8156C35.9627 14.288 35.9988 14.331 36.2513 14.3668C36.4028 14.3883 37.6945 14.4956 39.1161 14.5958C40.5449 14.6961 41.7572 14.7963 41.8077 14.8249C41.8726 14.8679 41.4757 15.283 40.516 16.1778C39.7511 16.8936 38.7986 17.8027 38.4089 18.1964L37.6873 18.9122L37.8172 19.5063C37.8893 19.8355 38.1852 21.1025 38.4811 22.3194C38.777 23.5434 39.0151 24.5813 39.0151 24.6314C39.0151 24.6815 38.979 24.7173 38.9429 24.7173C38.8996 24.7173 37.7017 24.0731 36.273 23.2929L33.6752 21.8684L32.1742 22.6916C30.0743 23.844 28.3352 24.7388 28.2847 24.6959C28.2631 24.6672 28.328 24.3523 28.429 23.9872C28.6166 23.3286 29.1939 20.9594 29.4898 19.6422C29.6197 19.0481 29.6269 18.9551 29.5331 18.8119C29.4754 18.726 28.6672 17.9386 27.7435 17.0725C25.7663 15.2186 25.4127 14.8679 25.4993 14.8178C25.5642 14.782 26.791 14.6817 29.3094 14.5171C30.2259 14.4599 31.0701 14.3954 31.1928 14.3739C31.4814 14.3238 31.5536 14.1879 32.4123 12.0834C33.2133 10.1006 33.6823 9.02686 33.7184 9.06265C33.7329 9.07698 34.1298 10.0362 34.606 11.1957Z" fill="#A0B7FF"/>
  <path d="M23.3757 1.22385C23.3252 1.25251 23.2385 1.50305 23.1664 1.77504C22.9138 2.82729 22.3221 3.67192 21.5211 4.1372C21.3263 4.25177 20.8572 4.45931 20.482 4.60247C20.114 4.7385 19.8037 4.88166 19.8037 4.92458C19.8037 4.96037 20.0995 5.11073 20.4603 5.2539C22.084 5.89812 22.7623 6.62819 23.1448 8.13858C23.2385 8.51794 23.3323 8.75414 23.3973 8.75414C23.4839 8.75414 23.6427 8.40344 23.8592 7.71623C23.9891 7.3082 24.2704 6.76422 24.5519 6.37766C24.8189 6.01975 25.555 5.59747 26.5796 5.21811C27.0847 5.02482 27.2363 4.92458 27.1569 4.83867C27.1281 4.81721 26.7889 4.69551 26.3848 4.55955C24.8694 4.06562 24.2127 3.37847 23.722 1.76071C23.5633 1.22385 23.5127 1.14514 23.3757 1.22385Z" fill="#A0B7FF"/>
  <path d="M40.337 4.38067C39.7452 4.75283 39.738 5.50443 40.3153 5.99123C40.7699 6.36339 41.4338 6.15585 41.7008 5.55455C41.8884 5.13226 41.8379 4.78862 41.5493 4.5023C41.2606 4.22317 40.6833 4.16592 40.337 4.38067Z" fill="#A0B7FF"/>
  <path d="M10.624 13.135C10.321 14.2303 10.0973 14.4879 9.11591 14.9675C8.76955 15.1321 8.50254 15.2968 8.52418 15.3398C8.54581 15.3755 8.74785 15.4543 8.97159 15.5187C9.78699 15.7549 10.3282 16.3061 10.5086 17.0792C10.6601 17.709 10.6818 17.709 11.0354 16.9789C11.4539 16.1271 11.7642 15.8122 12.5075 15.5258C12.8178 15.4041 13.0703 15.2682 13.0703 15.2324C13.0703 15.1894 12.8322 15.082 12.5363 14.989C11.8797 14.7814 11.4323 14.3806 11.1292 13.7292C10.8405 13.1136 10.8333 13.0992 10.7395 13.0634C10.689 13.0492 10.6385 13.0778 10.624 13.135Z" fill="#A0B7FF"/>
  <path d="M12.975 18.4678C12.9389 18.5394 12.8379 18.8115 12.7513 19.0763C12.5637 19.6489 12.1668 20.0498 11.5318 20.3289C11.3081 20.4221 11.0122 20.5509 10.8823 20.6081C10.7452 20.6654 10.6514 20.7513 10.673 20.8014C10.6875 20.8443 10.9328 20.9804 11.2215 21.1021C11.7915 21.3383 12.3905 21.8035 12.5781 22.1614C12.6431 22.2903 12.7513 22.5837 12.8162 22.82C12.8739 23.0562 12.9605 23.2495 12.9966 23.2495C13.04 23.2495 13.2204 22.9488 13.4008 22.5837C13.7977 21.7821 14.079 21.4814 14.6924 21.2022C15.4574 20.8443 15.5078 20.8157 15.5078 20.7442C15.5006 20.7012 15.277 20.5938 14.9955 20.4936C14.7213 20.3934 14.4038 20.2502 14.2883 20.1786C13.8265 19.8709 13.444 19.3054 13.2492 18.6468C13.1482 18.3247 13.076 18.2746 12.975 18.4678Z" fill="#A0B7FF"/>
  <path d="M46.4765 18.7187C46.1806 18.7903 45.8198 19.2055 45.7549 19.5276C45.6899 19.8712 45.957 20.3937 46.2889 20.5655C46.8301 20.8518 47.6744 20.315 47.6744 19.6851C47.6744 19.0909 47.0249 18.5684 46.4765 18.7187Z" fill="#A0B7FF"/>
  <path d="M21.1553 19.5272C21.0326 19.5845 20.2244 20.2501 19.3513 21.0017C15.2453 24.5306 12.33 26.4419 8.99615 27.8019C7.6828 28.3387 7.37971 28.5678 7.30036 29.0903C7.19931 29.756 7.58182 30.3717 8.15911 30.479C8.87346 30.615 11.8826 29.3265 14.4588 27.7876C16.8401 26.3631 19.9574 24.0296 21.9707 22.1685L22.7789 21.4098V20.9803C22.7789 19.9996 21.8553 19.1764 21.1553 19.5272Z" fill="#A0B7FF"/>
  <path d="M4.90025 23.611C4.39512 23.8902 2.95188 25.9087 2.1509 27.4405C0.909725 29.8098 0.41903 31.807 0.541704 33.9043C0.621081 35.2142 1.10456 36.2736 2.05709 37.2184C2.94467 38.0917 3.94049 38.5141 5.26824 38.5856C8.38561 38.7503 12.2534 37.2829 17.2253 34.0617C19.1521 32.8091 21.3096 31.2701 22.3849 30.3753C22.5075 30.268 22.5436 30.0819 23.2724 25.8658C23.424 24.971 23.359 24.9495 22.5581 25.6224C17.7449 29.6595 13.2204 32.623 9.96597 33.8828C8.06808 34.6201 6.23523 34.842 5.0951 34.4769C4.58271 34.3123 3.7673 33.5034 3.55804 32.9451C3.33434 32.3367 3.21888 31.1413 3.32712 30.4183C3.51474 29.1585 4.36623 27.1542 5.44864 25.4434C6.15581 24.3339 6.21359 24.0261 5.78063 23.7183C5.49917 23.5179 5.14555 23.4749 4.90025 23.611Z" fill="#A0B7FF"/>
  <path d="M33.2433 29.0548C33.1062 29.112 32.0527 29.8136 30.8981 30.6152C26.2582 33.8363 23.0831 35.769 19.6049 37.4942C16.3576 39.0975 13.9691 40.0209 11.1332 40.7511C10.3683 40.9515 9.60332 41.1806 9.42292 41.2736C8.58588 41.6816 8.47764 42.7697 9.20644 43.4281C9.67548 43.8434 10.0507 43.8505 11.9846 43.4568C14.3732 42.9772 16.7545 42.1684 20.0018 40.7439C23.5593 39.1834 28.1848 36.4562 32.767 33.2136C35.3216 31.4026 35.5236 31.2452 35.6463 30.9875C35.8988 30.4578 35.7113 29.699 35.2349 29.334C34.7371 28.9617 33.7701 28.8257 33.2433 29.0548Z" fill="#A0B7FF"/>
</svg>